<svg xmlns="http://www.w3.org/2000/svg" width="728" height="116" viewBox="0 0 728 116">
  <rect width="728" height="116" fill="#ffffff"/>
<rect x="44" y="28" width="11" height="11" fill="#1f2328" rx="1"/>
<rect x="56" y="28" width="11" height="11" fill="#1f2328" rx="1"/>
<rect x="68" y="28" width="11" height="11" fill="#1f2328" rx="1"/>
<rect x="80" y="28" width="11" height="11" fill="#1f2328" rx="1"/>
<rect x="32" y="40" width="11" height="11" fill="#1f2328" rx="1"/>
<rect x="92" y="40" width="11" height="11" fill="#1f2328" rx="1"/>
<rect x="32" y="52" width="11" height="11" fill="#1f2328" rx="1"/>
<rect x="32" y="64" width="11" height="11" fill="#1f2328" rx="1"/>
<rect x="92" y="64" width="11" height="11" fill="#1f2328" rx="1"/>
<rect x="44" y="76" width="11" height="11" fill="#1f2328" rx="1"/>
<rect x="56" y="76" width="11" height="11" fill="#1f2328" rx="1"/>
<rect x="68" y="76" width="11" height="11" fill="#1f2328" rx="1"/>
<rect x="80" y="76" width="11" height="11" fill="#1f2328" rx="1"/>
<rect x="112" y="28" width="11" height="11" fill="#1f2328" rx="1"/>
<rect x="124" y="28" width="11" height="11" fill="#1f2328" rx="1"/>
<rect x="136" y="28" width="11" height="11" fill="#1f2328" rx="1"/>
<rect x="148" y="28" width="11" height="11" fill="#1f2328" rx="1"/>
<rect x="112" y="40" width="11" height="11" fill="#1f2328" rx="1"/>
<rect x="160" y="40" width="11" height="11" fill="#1f2328" rx="1"/>
<rect x="112" y="52" width="11" height="11" fill="#1f2328" rx="1"/>
<rect x="172" y="52" width="11" height="11" fill="#1f2328" rx="1"/>
<rect x="112" y="64" width="11" height="11" fill="#1f2328" rx="1"/>
<rect x="160" y="64" width="11" height="11" fill="#1f2328" rx="1"/>
<rect x="112" y="76" width="11" height="11" fill="#1f2328" rx="1"/>
<rect x="124" y="76" width="11" height="11" fill="#1f2328" rx="1"/>
<rect x="136" y="76" width="11" height="11" fill="#1f2328" rx="1"/>
<rect x="148" y="76" width="11" height="11" fill="#1f2328" rx="1"/>
<rect x="192" y="28" width="11" height="11" fill="#1f2328" rx="1"/>
<rect x="204" y="28" width="11" height="11" fill="#1f2328" rx="1"/>
<rect x="216" y="28" width="11" height="11" fill="#1f2328" rx="1"/>
<rect x="228" y="28" width="11" height="11" fill="#1f2328" rx="1"/>
<rect x="240" y="28" width="11" height="11" fill="#1f2328" rx="1"/>
<rect x="216" y="40" width="11" height="11" fill="#1f2328" rx="1"/>
<rect x="216" y="52" width="11" height="11" fill="#1f2328" rx="1"/>
<rect x="216" y="64" width="11" height="11" fill="#1f2328" rx="1"/>
<rect x="192" y="76" width="11" height="11" fill="#1f2328" rx="1"/>
<rect x="204" y="76" width="11" height="11" fill="#1f2328" rx="1"/>
<rect x="216" y="76" width="11" height="11" fill="#1f2328" rx="1"/>
<rect x="228" y="76" width="11" height="11" fill="#1f2328" rx="1"/>
<rect x="240" y="76" width="11" height="11" fill="#1f2328" rx="1"/>
<rect x="272" y="28" width="11" height="11" fill="#1f2328" rx="1"/>
<rect x="284" y="28" width="11" height="11" fill="#1f2328" rx="1"/>
<rect x="296" y="28" width="11" height="11" fill="#1f2328" rx="1"/>
<rect x="308" y="28" width="11" height="11" fill="#1f2328" rx="1"/>
<rect x="260" y="40" width="11" height="11" fill="#1f2328" rx="1"/>
<rect x="272" y="52" width="11" height="11" fill="#1f2328" rx="1"/>
<rect x="284" y="52" width="11" height="11" fill="#1f2328" rx="1"/>
<rect x="296" y="52" width="11" height="11" fill="#1f2328" rx="1"/>
<rect x="308" y="52" width="11" height="11" fill="#1f2328" rx="1"/>
<rect x="320" y="64" width="11" height="11" fill="#1f2328" rx="1"/>
<rect x="260" y="76" width="11" height="11" fill="#1f2328" rx="1"/>
<rect x="272" y="76" width="11" height="11" fill="#1f2328" rx="1"/>
<rect x="284" y="76" width="11" height="11" fill="#1f2328" rx="1"/>
<rect x="296" y="76" width="11" height="11" fill="#1f2328" rx="1"/>
<rect x="308" y="76" width="11" height="11" fill="#1f2328" rx="1"/>
<rect x="352" y="28" width="11" height="11" fill="#1f2328" rx="1"/>
<rect x="364" y="28" width="11" height="11" fill="#1f2328" rx="1"/>
<rect x="376" y="28" width="11" height="11" fill="#1f2328" rx="1"/>
<rect x="388" y="28" width="11" height="11" fill="#1f2328" rx="1"/>
<rect x="340" y="40" width="11" height="11" fill="#1f2328" rx="1"/>
<rect x="400" y="40" width="11" height="11" fill="#1f2328" rx="1"/>
<rect x="340" y="52" width="11" height="11" fill="#1f2328" rx="1"/>
<rect x="340" y="64" width="11" height="11" fill="#1f2328" rx="1"/>
<rect x="400" y="64" width="11" height="11" fill="#1f2328" rx="1"/>
<rect x="352" y="76" width="11" height="11" fill="#1f2328" rx="1"/>
<rect x="364" y="76" width="11" height="11" fill="#1f2328" rx="1"/>
<rect x="376" y="76" width="11" height="11" fill="#1f2328" rx="1"/>
<rect x="388" y="76" width="11" height="11" fill="#1f2328" rx="1"/>

<rect x="464" y="28" width="11" height="11" fill="#1f2328" rx="1"/>
<rect x="524" y="28" width="11" height="11" fill="#1f2328" rx="1"/>
<rect x="464" y="40" width="11" height="11" fill="#1f2328" rx="1"/>
<rect x="476" y="40" width="11" height="11" fill="#1f2328" rx="1"/>
<rect x="512" y="40" width="11" height="11" fill="#1f2328" rx="1"/>
<rect x="524" y="40" width="11" height="11" fill="#1f2328" rx="1"/>
<rect x="464" y="52" width="11" height="11" fill="#1f2328" rx="1"/>
<rect x="488" y="52" width="11" height="11" fill="#1f2328" rx="1"/>
<rect x="500" y="52" width="11" height="11" fill="#1f2328" rx="1"/>
<rect x="524" y="52" width="11" height="11" fill="#1f2328" rx="1"/>
<rect x="464" y="64" width="11" height="11" fill="#1f2328" rx="1"/>
<rect x="524" y="64" width="11" height="11" fill="#1f2328" rx="1"/>
<rect x="464" y="76" width="11" height="11" fill="#1f2328" rx="1"/>
<rect x="524" y="76" width="11" height="11" fill="#1f2328" rx="1"/>
<rect x="556" y="28" width="11" height="11" fill="#1f2328" rx="1"/>
<rect x="568" y="28" width="11" height="11" fill="#1f2328" rx="1"/>
<rect x="580" y="28" width="11" height="11" fill="#1f2328" rx="1"/>
<rect x="592" y="28" width="11" height="11" fill="#1f2328" rx="1"/>
<rect x="544" y="40" width="11" height="11" fill="#1f2328" rx="1"/>
<rect x="604" y="40" width="11" height="11" fill="#1f2328" rx="1"/>
<rect x="544" y="52" width="11" height="11" fill="#1f2328" rx="1"/>
<rect x="544" y="64" width="11" height="11" fill="#1f2328" rx="1"/>
<rect x="604" y="64" width="11" height="11" fill="#1f2328" rx="1"/>
<rect x="556" y="76" width="11" height="11" fill="#1f2328" rx="1"/>
<rect x="568" y="76" width="11" height="11" fill="#1f2328" rx="1"/>
<rect x="580" y="76" width="11" height="11" fill="#1f2328" rx="1"/>
<rect x="592" y="76" width="11" height="11" fill="#1f2328" rx="1"/>
<rect x="624" y="28" width="11" height="11" fill="#1f2328" rx="1"/>
<rect x="636" y="28" width="11" height="11" fill="#1f2328" rx="1"/>
<rect x="648" y="28" width="11" height="11" fill="#1f2328" rx="1"/>
<rect x="660" y="28" width="11" height="11" fill="#1f2328" rx="1"/>
<rect x="672" y="28" width="11" height="11" fill="#1f2328" rx="1"/>
<rect x="624" y="40" width="11" height="11" fill="#1f2328" rx="1"/>
<rect x="684" y="40" width="11" height="11" fill="#1f2328" rx="1"/>
<rect x="624" y="52" width="11" height="11" fill="#1f2328" rx="1"/>
<rect x="636" y="52" width="11" height="11" fill="#1f2328" rx="1"/>
<rect x="648" y="52" width="11" height="11" fill="#1f2328" rx="1"/>
<rect x="660" y="52" width="11" height="11" fill="#1f2328" rx="1"/>
<rect x="672" y="52" width="11" height="11" fill="#1f2328" rx="1"/>
<rect x="624" y="64" width="11" height="11" fill="#1f2328" rx="1"/>
<rect x="624" y="76" width="11" height="11" fill="#1f2328" rx="1"/>
</svg>